<?xml version="1.0" standalone="no"?>
<!DOCTYPE svg PUBLIC "-//W3C//DTD SVG 20010904//EN"
 "http://www.w3.org/TR/2001/REC-SVG-20010904/DTD/svg10.dtd">
<svg version="1.0" xmlns="http://www.w3.org/2000/svg"
 width="128.000000pt" height="128.000000pt" viewBox="0 0 128.000000 128.000000"
 preserveAspectRatio="xMidYMid meet">
<metadata>
Created by potrace 1.14, written by Peter Selinger 2001-2017
</metadata>
<g transform="translate(0.000000,128.000000) scale(0.100000,-0.100000)"
fill="#000000" stroke="none">
<path d="M302 1244 c-75 -52 -177 -166 -214 -242 -41 -82 -45 -176 -12 -233
l21 -35 -27 -16 c-82 -47 -13 -230 102 -270 20 -7 68 -40 106 -73 82 -69 82
-67 -23 -138 -97 -67 -148 -127 -193 -229 -2 -5 208 -8 468 -8 l471 0 -7 38
c-4 20 -8 48 -9 62 -1 14 -3 33 -3 42 -1 9 -14 28 -28 41 -31 29 -28 31 51 46
33 7 85 21 116 32 66 24 101 70 120 158 13 60 14 80 6 233 -4 76 -2 100 9 109
9 7 14 32 14 70 0 55 -2 60 -36 86 -20 15 -50 40 -66 56 -16 15 -33 25 -38 22
-14 -9 -59 16 -65 37 -8 23 -41 42 -50 28 -4 -6 -10 -8 -15 -5 -4 3 -15 2 -23
-1 -12 -4 -14 -18 -10 -69 3 -44 1 -65 -8 -70 -9 -6 -11 -2 -6 15 18 69 -40
203 -125 291 l-57 59 -208 0 -208 -1 -53 -35z m588 -379 c-7 -8 -17 -15 -23
-15 -5 0 -2 9 8 20 21 23 35 19 15 -5z m57 -366 c11 -25 9 -27 -14 -32 -23 -4
-24 -2 -19 22 4 14 7 32 8 39 2 16 11 5 25 -29z"/>
</g>
</svg>
